<?xml version="1.0" encoding="iso-8859-1"?>
<!-- Uploaded to: SVG Repo, www.svgrepo.com, Generator: SVG Repo Mixer Tools -->
<svg fill="#000000" version="1.1" id="Layer_1" xmlns="http://www.w3.org/2000/svg" xmlns:xlink="http://www.w3.org/1999/xlink" 
	 viewBox="0 0 512 512" xml:space="preserve">
<g>
	<g>
		<path d="M504,306c0,20-13.144,44-32,44H48c-19.812,0-40-20-40-40H0c0,24,23.776,48,48,48h424c23.928,0,40-28,40-52H504z"/>
	</g>
</g>
<g>
	<g>
		<path d="M440,134H80c-23.892,0-48,11.132-48,36v40h8v-40c0-19.34,20.088-28,40-28h360c21.236,0,32,9.42,32,28v40h8v-40
			C480,147.12,465.42,134,440,134z"/>
	</g>
</g>
<g>
	<g>
		<path d="M48,210H32c-26.448,0-32,10.876-32,20v80h8v-80c0-7.964,8.076-12,24-12h16c12.712,0,16,2.468,16,12v60h8v-60
			C72,212.424,60.464,210,48,210z"/>
	</g>
</g>
<g>
	<g>
		<path d="M488,210h-16c-26.448,0-32,10.876-32,20v60h8v-60c0-7.964,8.076-12,24-12h16c12.712,0,16,2.468,16,12v80h8v-80
			C512,212.424,500.464,210,488,210z"/>
	</g>
</g>
<g>
	<g>
		<rect x="72" y="282" width="376" height="8"/>
	</g>
</g>
<g>
	<g>
		<polygon points="64,350 64,370 52,370 52,350 44,350 44,378 72,378 72,350 		"/>
	</g>
</g>
<g>
	<g>
		<polygon points="460,350 460,370 448,370 448,350 440,350 440,378 468,378 468,350 		"/>
	</g>
</g>
<g>
	<g>
		<path d="M88,314c-5.832,0-16-12.712-16-20v-4h-8v4c0,11.056,12.872,28,24,28h284v-8H88z"/>
	</g>
</g>
<g>
	<g>
		<path d="M440,290v4c0,8.352-3.044,20-8,20h-24v8h24c11.74,0,16-16.744,16-28v-4H440z"/>
	</g>
</g>
<g>
	<g>
		<g>
			<path d="M52,170v20h8v-20c0-4.412,1.676-7.236,6.404-10.792l-4.808-6.392C56.848,156.384,52,161.22,52,170z"/>
			<path d="M440,154h-20v8h20c13.584,0,16,2.096,16,8h8C464,154,448.388,154,440,154z"/>
			<rect x="388" y="154" width="12" height="8"/>
		</g>
	</g>
</g>
</svg>